#define bullet_width 11
#define bullet_height 11
static unsigned char bullet_bits[] = {
   0x00, 0x00, 0x50, 0x00, 0xf8, 0x00, 0xfc, 0x01, 0xfc, 0x01, 0x24, 0x01,
   0xfc, 0x01, 0x70, 0x00, 0x50, 0x00, 0x00, 0x00, 0x50, 0x00 };
