#define max_toggled_hover_width 11
#define max_toggled_hover_height 11
static unsigned char max_toggled_hover_bits[] = {
   0x00, 0x00, 0x00, 0x00, 0x80, 0x00, 0xfc, 0x02, 0x86, 0x07, 0xbb, 0x06,
   0xfe, 0x07, 0xfc, 0x02, 0x80, 0x00, 0x00, 0x00, 0x00, 0x00 };
