#define max_hover_width 11
#define max_hover_height 11
static unsigned char max_hover_bits[] = {
   0x20, 0x00, 0x70, 0x00, 0xf8, 0x00, 0xf8, 0x00, 0xd8, 0x00, 0xd8, 0x00,
   0x88, 0x00, 0xfc, 0x01, 0x50, 0x00, 0xf8, 0x00, 0x70, 0x00 };
