#define max_toggled_width 11
#define max_toggled_height 11
static unsigned char max_toggled_bits[] = {
   0x00, 0x00, 0x00, 0x00, 0x00, 0x00, 0x80, 0x00, 0xfe, 0x02, 0x9f, 0x07,
   0xfe, 0x02, 0x80, 0x00, 0x00, 0x00, 0x00, 0x00, 0x00, 0x00 };
