#define pressed_width 11
#define pressed_height 11
static unsigned char pressed_bits[] = {
   0xf8, 0x00, 0xfc, 0x01, 0x74, 0x01, 0xa8, 0x00, 0x70, 0x00, 0x20, 0x00,
   0x00, 0x00, 0x20, 0x00, 0x70, 0x00, 0x70, 0x00, 0x20, 0x00 };
