#define shade_hover_width 11
#define shade_hover_height 11
static unsigned char shade_hover_bits[] = {
   0x00, 0x00, 0x00, 0x00, 0x08, 0x00, 0xfa, 0x01, 0x0f, 0x03, 0x3b, 0x06,
   0xff, 0x03, 0xfa, 0x01, 0x08, 0x00, 0x00, 0x00, 0x00, 0x00 };
