#define shade_width 11
#define shade_height 11
static unsigned char shade_bits[] = {
   0x00, 0x00, 0x00, 0x00, 0x00, 0x00, 0x08, 0x00, 0xfa, 0x03, 0x7f, 0x06,
   0xfa, 0x03, 0x08, 0x00, 0x00, 0x00, 0x00, 0x00, 0x00, 0x00 };
